<svg xmlns="http://www.w3.org/2000/svg" width="42.872" height="41.889" viewBox="0 0 42.872 41.889">
  <g id="customer-support_1_" data-name="customer-support (1)" transform="translate(-0.643 -1.361)">
    <path id="Path_6450" data-name="Path 6450" d="M13.516,16.3l2.637-2.613H28.166l2.545,2.274v8.586l-2.748,2.07H22.227l-4.344,3.937-.508-3.937L14.66,26.14,13.516,23.8Z" fill="#ffb602"/>
    <path id="Path_6445" data-name="Path 6445" d="M40.882,19.505a18.815,18.815,0,0,0-37.606,0A4.425,4.425,0,0,0,.643,23.546v4.964a4.427,4.427,0,0,0,4.422,4.422,2.864,2.864,0,0,0,2.861-2.861V21.985a2.855,2.855,0,0,0-2.581-2.833,16.764,16.764,0,0,1,33.465,0,2.855,2.855,0,0,0-2.577,2.832v8.086a2.854,2.854,0,0,0,2.615,2.836v2.043a4.178,4.178,0,0,1-4.173,4.173H31.584a3.072,3.072,0,0,0-2.917-2.077H25.482a3.058,3.058,0,0,0-1.3.284,3.109,3.109,0,0,0-1.8,2.818,3.107,3.107,0,0,0,3.1,3.1h3.186a3.115,3.115,0,0,0,2.919-2.077h3.089A6.231,6.231,0,0,0,40.9,34.949V32.541a4.425,4.425,0,0,0,2.615-4.032V23.545a4.425,4.425,0,0,0-2.633-4.039ZM5.874,21.985v8.086a.811.811,0,0,1-.81.81A2.374,2.374,0,0,1,2.693,28.51V23.545a2.373,2.373,0,0,1,2.371-2.371.811.811,0,0,1,.81.81ZM29.7,40.368a1.057,1.057,0,0,1-1.03.833H25.481a1.051,1.051,0,0,1-.436-2.008,1.019,1.019,0,0,1,.436-.1h3.186a1.056,1.056,0,0,1,1.03,1.27ZM41.464,28.51a2.374,2.374,0,0,1-2.371,2.371.811.811,0,0,1-.81-.81V21.985a.811.811,0,0,1,.81-.81,2.374,2.374,0,0,1,2.371,2.371Z" transform="translate(0 0)" fill="#006a15"/>
    <path id="Path_6446" data-name="Path 6446" d="M30.874,30.308a3.628,3.628,0,0,0,3.684-3.561V19.49a3.479,3.479,0,0,0-1.08-2.517,3.723,3.723,0,0,0-2.6-1.044H19.615a3.628,3.628,0,0,0-3.684,3.561v7.257a3.628,3.628,0,0,0,3.684,3.561h.069v1.88a1.743,1.743,0,0,0,1.126,1.622,1.871,1.871,0,0,0,.678.128,1.8,1.8,0,0,0,1.273-.519L26,30.308Zm-5.848-1.437-3.5,3.367a.044.044,0,0,1-.06.013.056.056,0,0,1-.04-.063V29.468a.855.855,0,0,0-.869-.84h-.938a1.916,1.916,0,0,1-1.945-1.88V19.49a1.915,1.915,0,0,1,1.945-1.88H30.874a1.967,1.967,0,0,1,1.374.552,1.836,1.836,0,0,1,.571,1.328v7.257a1.916,1.916,0,0,1-1.945,1.88H25.638a.886.886,0,0,0-.613.244Z" transform="translate(-3.167 -2.947)" fill="#006a15"/>
    <path id="Path_6447" data-name="Path 6447" d="M23.9,26.787a1.4,1.4,0,1,0,1.4,1.4A1.4,1.4,0,0,0,23.9,26.787Z" transform="translate(-5.838 -8.053)" fill="#006a15"/>
    <path id="Path_6448" data-name="Path 6448" d="M31.183,26.787a1.4,1.4,0,1,0,1.4,1.4A1.4,1.4,0,0,0,31.183,26.787Z" transform="translate(-9.193 -8.053)" fill="#006a15"/>
    <path id="Path_6449" data-name="Path 6449" d="M38.469,26.787a1.4,1.4,0,1,0,1.4,1.4A1.4,1.4,0,0,0,38.469,26.787Z" transform="translate(-12.372 -8.053)" fill="#006a15"/>
  </g>
</svg>